HIERARCHY
ROOT joint_Root
{
	OFFSET 0.0 0.0 0.0
	CHANNELS 6 Xposition Yposition Zposition Zrotation Xrotation Yrotation 
	JOINT Hips
	{
		OFFSET -0.726466 93.3139 -2.00062
		CHANNELS 6 Xposition Yposition Zposition Zrotation Xrotation Yrotation 
		JOINT Spine
		{
			OFFSET 15.7357 0.0 0.0
			CHANNELS 6 Xposition Yposition Zposition Zrotation Xrotation Yrotation 
			JOINT Chest
			{
				OFFSET 8.98455 -0.406207 0.0
				CHANNELS 6 Xposition Yposition Zposition Zrotation Xrotation Yrotation 
				JOINT Neck
				{
					OFFSET 16.3773 0.0 0.0
					CHANNELS 6 Xposition Yposition Zposition Zrotation Xrotation Yrotation 
					JOINT Head
					{
						OFFSET 6.45672 0.0 0.0
						CHANNELS 6 Xposition Yposition Zposition Zrotation Xrotation Yrotation 
						End Site
						{
							OFFSET 0.0 0.0 0.0
						}
					}
				}
				JOINT Shoulder_L
				{
					OFFSET 12.9942 -0.242716 4.98039
					CHANNELS 6 Xposition Yposition Zposition Zrotation Xrotation Yrotation 
					JOINT UpperArm_L
					{
						OFFSET 5.34809 0.0 0.0
						CHANNELS 6 Xposition Yposition Zposition Zrotation Xrotation Yrotation 
						JOINT LowerArm_L
						{
							OFFSET 24.3286 1.87007e-05 0.0
							CHANNELS 6 Xposition Yposition Zposition Zrotation Xrotation Yrotation 
							JOINT Hand_L
							{
								OFFSET 22.2916 0.0 0.0
								CHANNELS 6 Xposition Yposition Zposition Zrotation Xrotation Yrotation 
								End Site
								{
									OFFSET 0.0 0.0 0.0
								}
							}
						}
					}
				}
				JOINT Shoulder_R
				{
					OFFSET 12.9945 -0.242716 -4.98039
					CHANNELS 6 Xposition Yposition Zposition Zrotation Xrotation Yrotation 
					JOINT UpperArm_R
					{
						OFFSET -5.34813 0.0 0.0
						CHANNELS 6 Xposition Yposition Zposition Zrotation Xrotation Yrotation 
						JOINT LowerArm_R
						{
							OFFSET -24.3289 0.000322201 0.0
							CHANNELS 6 Xposition Yposition Zposition Zrotation Xrotation Yrotation 
							JOINT Hand_R
							{
								OFFSET -22.2915 -0.000108084 0.0
								CHANNELS 6 Xposition Yposition Zposition Zrotation Xrotation Yrotation 
								End Site
								{
									OFFSET 0.0 0.0 0.0
								}
							}
						}
					}
				}
			}
		}
		JOINT UpperLeg_L
		{
			OFFSET -2.19248 -6.46944 0.0
			CHANNELS 6 Xposition Yposition Zposition Zrotation Xrotation Yrotation 
			JOINT LowerLeg_L
			{
				OFFSET 39.0811 0.0 -1.23785e-05
				CHANNELS 6 Xposition Yposition Zposition Zrotation Xrotation Yrotation 
				JOINT Foot_L
				{
					OFFSET 40.9854 0.0 -1.26872e-05
					CHANNELS 6 Xposition Yposition Zposition Zrotation Xrotation Yrotation 
					JOINT Toes_L
					{
						OFFSET 11.7543 0.0 0.0
						CHANNELS 6 Xposition Yposition Zposition Zrotation Xrotation Yrotation 
						End Site
						{
							OFFSET 0.0 0.0 0.0
						}
					}
				}
			}
		}
		JOINT UpperLeg_R
		{
			OFFSET -2.19251 6.46944 0.0
			CHANNELS 6 Xposition Yposition Zposition Zrotation Xrotation Yrotation 
			JOINT LowerLeg_R
			{
				OFFSET -39.0811 -0.00228153 -0.0401928
				CHANNELS 6 Xposition Yposition Zposition Zrotation Xrotation Yrotation 
				JOINT Foot_R
				{
					OFFSET -40.9854 0.0 0.0
					CHANNELS 6 Xposition Yposition Zposition Zrotation Xrotation Yrotation 
					JOINT Toes_R
					{
						OFFSET -11.7543 0.0 0.0
						CHANNELS 6 Xposition Yposition Zposition Zrotation Xrotation Yrotation 
						End Site
						{
							OFFSET 0.0 0.0 0.0
						}
					}
				}
			}
		}
	}
}
MOTION
Frames:	4
Frame Time:	0.0333333
0.000000 0.000000 0.000000 0.000000 0.000000 -0.000000 137.626000 87.414700 -191.516000 86.739500 -9.021010 3.339790 15.735700 0.000005 -0.000001 99.345000 79.813400 -100.085000 8.984550 -0.406207 -0.000000 12.372800 3.248100 -1.831810 16.377300 -0.000001 -0.000001 6.360130 1.520020 0.255398 6.456720 -0.000001 -0.000000 3.897500 -0.197174 0.926580 12.994200 -0.242716 4.980390 -88.997700 -2.247620 -65.957900 5.348090 -0.000007 -0.000001 -61.228200 26.358300 -8.418190 24.328600 0.000019 0.000005 5.152300 7.365170 -35.129100 22.291600 -0.000001 0.000005 1.861280 5.574200 -9.898990 12.994500 -0.242716 -4.980390 89.522500 1.349580 -70.515600 -5.348130 -0.000001 -0.000004 -50.157700 33.683700 -26.666000 -24.328900 0.000322 -0.000009 1.964820 2.994070 -33.314800 -22.291500 -0.000108 -0.000004 1.844720 5.548250 -8.622650 -2.192480 -6.469440 -0.000000 -177.050000 -14.093000 -22.157400 39.081100 -0.000007 -0.000012 -0.341811 0.307336 48.040800 40.985400 -0.000006 -0.000013 0.105480 -7.260370 -72.615500 11.754300 -0.000000 0.000003 -0.382130 -0.497720 -16.306900 -2.192510 6.469440 -0.000001 170.411000 8.321050 173.548000 -39.081100 -0.002282 -0.040193 0.326161 -0.131013 67.923500 -40.985400 0.000008 0.000006 3.055190 -6.753490 -50.641800 -11.754300 -0.000006 -0.000006 -0.021125 -0.173445 -23.661600
0.000000 0.000000 0.000000 0.000000 0.000000 -0.000000 137.756000 88.438400 -188.349000 85.779100 -7.177510 3.363760 15.735700 0.000005 -0.000001 94.615500 80.128400 -94.859600 8.984550 -0.406207 -0.000000 11.919800 1.566210 -0.651536 16.377300 -0.000001 -0.000001 6.740640 1.348600 0.126890 6.456720 -0.000001 -0.000000 4.513190 0.781978 0.871517 12.994200 -0.242716 4.980390 -88.901700 -2.551730 -66.701200 5.348090 -0.000007 -0.000001 -58.700900 27.957400 -13.275000 24.328600 0.000019 0.000005 4.091860 5.272770 -37.903100 22.291600 -0.000001 0.000005 2.627440 5.587530 -10.622000 12.994500 -0.242716 -4.980390 89.450700 1.476370 -69.588400 -5.348130 -0.000001 -0.000004 -52.788400 33.506500 -21.980700 -24.328900 0.000322 -0.000009 2.202360 3.525350 -32.035700 -22.291500 -0.000108 -0.000004 1.583300 5.547330 -8.580530 -2.192480 -6.469440 -0.000000 -176.157000 -13.364100 -18.165500 39.081100 -0.000007 -0.000012 -0.206568 0.207616 44.855600 40.985400 -0.000006 -0.000013 1.619570 -6.552610 -73.273600 11.754300 -0.000000 0.000003 -1.120640 -1.456120 -15.695800 -2.192510 6.469440 -0.000001 172.418000 11.086400 169.030000 -39.081100 -0.002282 -0.040193 0.346071 -0.128470 69.464200 -40.985400 0.000008 0.000006 1.028020 -5.711820 -51.095800 -11.754300 -0.000006 -0.000006 -0.020964 -0.172573 -23.625600
0.000000 0.000000 0.000000 0.000000 0.000000 -0.000000 137.839000 89.443000 -185.333000 84.915800 -5.021130 3.390400 15.735700 0.000005 -0.000001 89.508300 80.369400 -89.236400 8.984550 -0.406207 -0.000000 11.494900 -0.155121 0.559237 16.377300 -0.000001 -0.000001 7.351540 0.888151 -0.119671 6.456720 -0.000001 -0.000000 4.989630 1.731010 0.948128 12.994200 -0.242716 4.980390 -88.730900 -3.105850 -67.759400 5.348090 -0.000007 -0.000001 -56.574100 28.229000 -17.647100 24.328600 0.000019 0.000005 4.003000 4.614060 -41.021500 22.291600 -0.000001 0.000005 3.146470 5.590080 -10.765700 12.994500 -0.242716 -4.980390 89.438800 1.408720 -68.275300 -5.348130 -0.000001 -0.000004 -55.075600 32.608400 -17.470200 -24.328900 0.000322 -0.000009 2.314840 3.820550 -31.255900 -22.291500 -0.000108 -0.000004 1.282700 5.544640 -8.454490 -2.192480 -6.469440 -0.000000 -175.232000 -12.445300 -14.083300 39.081100 -0.000007 -0.000012 -0.117309 0.134989 40.992100 40.985400 -0.000006 -0.000013 2.764050 -5.628860 -73.477200 11.754300 -0.000000 0.000003 -1.435700 -1.872150 -15.437800 -2.192510 6.469440 -0.000001 174.695000 14.335800 165.145000 -39.081100 -0.002282 -0.040193 0.328164 -0.131330 67.998700 -40.985400 0.000008 0.000006 0.015013 -3.848690 -52.485500 -11.754300 -0.000006 -0.000006 -0.021281 -0.174281 -23.696100
0.000000 0.000000 0.000000 0.000000 0.000000 -0.000000 137.874000 90.323500 -182.419000 84.279900 -3.013850 3.529740 15.735700 0.000005 -0.000001 84.783500 80.422800 -84.087800 8.984550 -0.406207 -0.000000 11.323500 -1.706280 1.559950 16.377300 -0.000001 -0.000001 7.904620 0.482559 -0.155783 6.456720 -0.000001 -0.000000 5.114670 2.518010 0.780035 12.994200 -0.242716 4.980390 -88.592800 -3.616430 -68.720700 5.348090 -0.000007 -0.000001 -54.010300 28.100000 -22.217700 24.328600 0.000019 0.000005 3.479360 3.630240 -43.846100 22.291600 -0.000001 0.000005 3.345640 5.593520 -10.963000 12.994500 -0.242716 -4.980390 89.395700 1.413820 -66.853800 -5.348130 -0.000001 -0.000004 -56.408100 31.623200 -13.516800 -24.328900 0.000322 -0.000009 2.421340 4.032300 -31.031600 -22.291500 -0.000108 -0.000004 0.883039 5.541920 -8.330220 -2.192480 -6.469440 -0.000000 -174.440000 -11.547800 -9.885590 39.081100 -0.000007 -0.000012 -0.004873 0.006515 36.802500 40.985400 -0.000006 -0.000013 3.945980 -4.784160 -73.525200 11.754300 -0.000000 0.000003 -1.235830 -1.603080 -15.258500 -2.192510 6.469440 -0.000001 177.036000 17.272300 161.904000 -39.081100 -0.002282 -0.040193 0.277166 -0.135333 63.713900 -40.985400 0.000008 0.000006 -0.961994 -2.185810 -53.890200 -11.754300 -0.000006 -0.000006 -0.020325 -0.169084 -23.481800
